<?xml version="1.0" standalone="no"?>
<!DOCTYPE svg PUBLIC "-//W3C//DTD SVG 20010904//EN"
 "http://www.w3.org/TR/2001/REC-SVG-20010904/DTD/svg10.dtd">
<svg version="1.0" xmlns="http://www.w3.org/2000/svg"
 width="700.000000pt" height="700.000000pt" viewBox="0 0 700.000000 700.000000"
 preserveAspectRatio="xMidYMid meet">
<metadata>
Created by potrace 1.14, written by Peter Selinger 2001-2017
</metadata>
<g transform="translate(0.000000,700.000000) scale(0.100000,-0.100000)"
fill="#000000" stroke="none">
<path d="M3578 6825 c-2 -2 -23 -6 -48 -10 -25 -3 -52 -8 -60 -10 -8 -2 -35
-7 -60 -10 -25 -3 -52 -8 -60 -10 -17 -5 -54 -11 -115 -20 -22 -4 -48 -8 -57
-11 -21 -6 -54 -13 -98 -20 -19 -3 -66 -12 -105 -21 -38 -8 -83 -17 -100 -20
-16 -3 -111 -23 -210 -45 -99 -22 -191 -42 -205 -44 -14 -3 -33 -7 -42 -10 -9
-3 -26 -7 -37 -9 -12 -3 -30 -7 -41 -9 -106 -24 -366 -85 -495 -118 -88 -21
-171 -42 -184 -44 -13 -3 -143 -34 -290 -70 -146 -36 -275 -68 -286 -70 -11
-2 -47 -10 -80 -18 -143 -36 -401 -97 -425 -101 -14 -3 -45 -11 -70 -18 l-45
-14 30 -12 c30 -13 155 -41 300 -67 44 -9 85 -17 90 -19 6 -1 20 -6 32 -10 12
-4 19 -13 17 -19 -3 -7 1 -13 8 -13 7 0 40 -6 73 -13 33 -6 69 -13 80 -15 11
-2 110 -26 220 -54 110 -28 209 -53 220 -55 11 -2 40 -9 65 -14 53 -12 128
-25 153 -26 9 0 17 -3 17 -6 0 -3 10 -7 23 -7 30 -2 49 -7 66 -17 10 -6 12 -5
7 2 -11 18 28 9 48 -11 21 -21 33 -23 16 -2 -9 11 -9 15 -1 15 6 0 14 -7 17
-15 5 -11 11 -12 24 -5 24 13 40 13 40 -1 0 -5 -4 -8 -8 -5 -4 2 -14 0 -22 -6
-12 -8 -12 -9 2 -5 9 3 19 1 22 -6 3 -8 5 -8 5 2 1 11 4 11 16 1 8 -7 15 -9
15 -5 0 4 8 1 18 -6 15 -13 16 -12 3 3 -7 10 -17 16 -21 13 -5 -3 -12 0 -16 6
-5 9 0 10 17 5 13 -4 30 -8 37 -8 6 -1 11 -8 10 -16 -2 -8 3 -17 11 -20 10 -3
12 1 9 16 -6 21 -3 21 40 5 9 -3 24 -7 32 -7 9 -1 14 -9 12 -21 l-3 -20 17 20
c16 20 16 20 11 -1 -5 -24 11 -26 37 -5 17 15 22 1 6 -15 -7 -7 -6 -11 4 -11
8 0 13 4 10 8 -2 4 0 10 6 14 5 3 10 0 10 -8 0 -16 27 -30 41 -21 5 3 9 0 9
-6 0 -6 5 -8 11 -4 14 9 -9 24 -27 17 -6 -2 -15 0 -19 6 -8 14 10 14 60 -1 22
-6 45 -10 50 -9 6 1 5 -3 -2 -10 -10 -10 -15 -9 -28 1 -8 7 -15 8 -15 2 0 -14
27 -23 47 -15 10 4 14 2 10 -4 -3 -5 1 -10 9 -10 10 0 11 4 4 11 -17 17 -11
27 9 14 11 -7 19 -16 18 -21 -1 -5 6 -11 16 -12 9 -2 15 1 11 6 -3 5 -10 6
-16 3 -6 -4 -8 -3 -5 3 4 6 24 4 56 -5 27 -9 48 -19 45 -23 -2 -4 1 -11 7 -15
8 -4 9 -3 5 4 -5 8 1 12 14 12 14 0 19 -4 14 -12 -5 -8 0 -7 11 2 11 9 16 10
11 3 -4 -7 -2 -14 3 -14 21 -3 26 -4 40 -13 10 -6 12 -5 7 2 -4 7 -1 12 8 12
9 0 16 -8 17 -17 0 -16 1 -16 8 1 7 17 8 18 14 3 4 -10 12 -14 22 -11 8 3 15
1 15 -5 0 -6 5 -11 11 -11 5 0 7 6 3 13 -6 8 -3 8 9 -2 9 -7 24 -11 32 -7 9 3
14 2 11 -3 -3 -5 1 -12 10 -15 8 -3 12 -2 9 4 -3 6 -2 10 3 10 6 0 12 -6 15
-13 3 -8 18 -12 36 -11 17 1 31 -1 31 -5 0 -4 7 -8 15 -8 8 0 15 4 15 9 0 5 5
6 10 3 6 -4 8 -11 5 -16 -3 -5 8 -7 24 -5 19 2 28 -1 24 -7 -4 -6 0 -8 9 -4 9
3 21 0 28 -6 10 -9 11 -9 6 0 -4 8 -2 11 6 9 7 -3 26 -7 41 -10 16 -4 25 -11
21 -17 -4 -8 0 -8 14 0 21 11 52 6 52 -9 0 -4 7 -11 16 -14 14 -5 15 -4 4 9
-12 14 -10 15 16 11 89 -16 114 -19 161 -20 43 0 52 -3 48 -16 -4 -12 3 -16
36 -16 28 -1 36 2 25 8 -9 5 -16 14 -16 21 0 8 3 8 9 -1 9 -15 42 -13 53 3 5
6 8 5 8 -3 0 -7 5 -10 12 -6 6 4 17 -1 25 -11 8 -12 13 -14 13 -6 0 10 3 11
14 2 8 -7 17 -8 20 -3 3 5 17 8 31 7 14 -2 23 1 20 5 -3 5 -12 7 -20 3 -8 -3
-15 -1 -15 4 0 5 12 9 28 10 15 0 42 3 60 7 21 5 32 4 32 -4 0 -6 -4 -9 -8 -6
-4 2 -14 0 -22 -5 -12 -7 -10 -8 6 -6 12 1 29 10 38 19 9 10 24 14 33 11 10
-4 14 -2 10 4 -3 5 3 9 16 8 12 -1 28 2 35 8 8 6 12 6 12 -2 0 -6 -4 -11 -10
-11 -5 0 -10 -6 -10 -12 1 -7 12 1 25 17 14 17 25 26 25 20 0 -5 4 -4 9 3 7
11 9 10 14 -3 4 -9 3 -13 -3 -10 -6 3 -7 -1 -3 -10 4 -13 8 -14 14 -4 4 7 6
16 4 20 -3 3 7 7 22 7 25 0 26 -1 8 -14 -10 -8 -14 -14 -8 -14 7 0 15 5 18 10
3 6 14 10 25 10 10 0 21 7 24 16 5 14 4 15 -9 4 -17 -14 -31 -8 -21 8 3 6 14
9 24 7 9 -2 23 -4 31 -4 11 -1 10 -5 -5 -17 -19 -15 -19 -15 1 -6 11 5 26 8
33 6 7 -1 8 0 2 3 -5 2 -10 9 -10 14 0 14 28 11 33 -3 4 -8 6 -7 6 4 1 9 -5
18 -11 21 -7 3 -3 4 10 4 12 -1 22 -6 22 -12 0 -6 9 -11 20 -12 18 -2 19 0 5
13 -13 14 -13 34 1 34 3 0 3 -4 0 -9 -8 -13 39 -32 57 -23 4 2 5 8 1 13 -4 6
-11 6 -19 -1 -9 -8 -15 -8 -20 0 -3 5 -4 11 -1 11 22 5 33 4 49 -4 11 -5 23
-4 31 2 7 6 16 8 20 4 4 -4 4 -1 1 8 -4 10 1 15 16 16 18 2 19 0 7 -15 -12
-15 -11 -16 5 -3 9 7 17 10 17 5 0 -4 5 -3 11 3 6 6 17 9 24 7 7 -3 15 2 19
12 5 14 4 15 -9 4 -8 -7 -15 -8 -15 -2 0 12 29 24 41 16 5 -3 6 -10 3 -16 -5
-7 -2 -8 7 -2 8 4 20 9 27 10 8 2 17 6 20 10 4 4 -1 4 -11 1 -12 -4 -16 -3
-11 4 4 6 19 8 36 5 16 -3 27 -2 23 3 -3 5 5 7 17 3 14 -3 19 -1 14 6 -4 7 1
10 14 7 11 -2 20 0 20 6 0 5 5 9 11 9 5 0 7 -6 3 -12 -6 -10 -4 -10 8 0 9 7
29 15 45 18 42 8 58 12 61 14 1 2 7 4 12 5 6 1 11 4 13 5 1 1 13 3 27 5 41 6
78 15 107 27 16 6 37 13 48 15 11 2 45 8 75 15 30 6 60 12 66 14 24 4 68 33
54 35 -28 3 -55 6 -145 18 -159 20 -169 21 -225 26 -30 3 -66 7 -80 9 -14 3
-50 7 -80 11 -30 3 -71 8 -90 10 -34 4 -105 12 -180 20 -97 10 -243 36 -263
46 -14 8 -66 12 -152 10 -410 -7 -474 -6 -486 7 -7 6 -20 12 -28 12 -25 0 -80
50 -101 91 -11 21 -23 58 -26 82 -6 39 -3 46 27 76 54 54 130 84 213 84 82 1
106 -3 270 -42 210 -51 210 -51 341 -56 118 -4 303 -16 327 -20 9 -2 48 -7 85
-10 37 -4 77 -9 88 -11 11 -2 41 -6 66 -9 25 -3 55 -7 66 -9 12 -3 43 -7 70
-11 26 -3 71 -10 98 -15 50 -9 61 -11 185 -30 36 -5 74 -12 85 -14 11 -2 47
-7 80 -11 32 -3 62 -8 65 -10 3 -1 36 -6 73 -10 37 -3 76 -8 86 -10 137 -26
611 -27 741 0 13 2 42 7 65 11 42 6 166 37 225 57 71 23 83 18 -280 103 -136
31 -318 74 -500 118 -80 19 -156 37 -170 39 -14 3 -104 24 -200 47 -96 22
-213 50 -260 61 -47 11 -114 27 -150 36 -36 8 -76 17 -90 20 -14 2 -79 17
-145 33 -108 25 -181 42 -195 45 -8 1 -152 35 -195 46 -22 5 -51 12 -64 14
-13 2 -60 13 -105 24 -121 29 -248 59 -276 65 -14 3 -43 10 -65 15 -22 5 -51
12 -65 15 -41 8 -62 13 -122 29 -31 8 -58 13 -60 12z m-1333 -1114 c3 -5 1
-12 -5 -16 -5 -3 -10 1 -10 9 0 18 6 21 15 7z m2127 -123 c-7 -7 -12 -8 -12
-2 0 14 12 26 19 19 2 -3 -1 -11 -7 -17z m-78 -20 c-3 -4 -9 -8 -15 -8 -5 0
-9 4 -9 8 0 5 7 9 15 9 8 0 12 -4 9 -9z m-189 -28 c-3 -5 -12 -10 -18 -10 -7
0 -6 4 3 10 19 12 23 12 15 0z m-91 -18 c2 -4 -5 -9 -17 -9 -17 -2 -19 0 -7 7
18 12 18 12 24 2z m-524 -93 c0 -5 -4 -9 -10 -9 -5 0 -10 7 -10 16 0 8 5 12
10 9 6 -3 10 -10 10 -16z m168 9 c-2 -5 -8 -9 -13 -9 -5 0 -11 4 -13 9 -1 5 4
9 13 9 9 0 14 -4 13 -9z"/>
<path d="M3402 6190 l-43 -5 23 -45 c30 -60 97 -104 180 -119 65 -13 132 -14
453 -12 197 2 210 1 285 -18 25 -7 64 -16 88 -21 24 -6 48 -12 53 -15 5 -4 9
0 9 7 0 9 3 9 8 2 7 -11 13 -13 70 -17 17 -1 32 -5 32 -8 0 -3 16 -5 35 -4 19
0 35 -2 35 -6 0 -4 14 -5 30 -4 17 1 33 -1 36 -6 3 -5 8 -7 12 -5 4 2 26 1 50
-4 24 -4 45 -3 48 2 3 5 11 5 19 -2 7 -6 20 -8 29 -4 9 4 16 1 16 -6 0 -10 3
-10 14 -1 10 9 16 9 21 1 5 -8 11 -7 23 2 9 7 13 8 9 2 -4 -8 5 -13 27 -16 22
-2 32 0 28 7 -3 6 0 5 9 -1 8 -6 22 -10 32 -9 9 2 17 -1 17 -6 0 -11 23 -7 32
6 5 6 8 5 8 -2 0 -7 5 -13 11 -13 5 0 7 6 3 13 -6 8 -3 8 9 -1 9 -8 38 -15 64
-18 33 -2 43 -1 33 6 -8 5 -10 10 -4 10 5 0 15 -5 22 -12 7 -7 12 -8 12 -3 0
6 5 3 10 -5 8 -13 13 -13 31 -2 11 8 18 9 14 3 -3 -6 0 -11 7 -12 7 0 20 -2
28 -3 64 -13 115 -14 129 -3 11 9 13 9 8 0 -11 -18 12 -26 30 -11 14 11 16 11
8 -1 -6 -11 -4 -13 8 -8 10 3 17 2 17 -3 0 -6 7 -10 15 -10 8 0 15 -4 15 -9 0
-5 7 -17 16 -25 10 -10 11 -16 4 -16 -7 0 -4 -8 7 -17 10 -10 13 -14 6 -9 -9
5 -13 4 -14 -5 0 -8 -2 -33 -3 -57 -2 -23 1 -45 6 -48 4 -3 8 -10 8 -15 0 -6
-3 -8 -8 -5 -4 2 -7 -13 -7 -35 0 -21 4 -39 9 -39 4 0 2 -7 -5 -17 -11 -13
-11 -17 -1 -20 6 -3 9 -10 5 -16 -13 -21 -9 -61 7 -77 12 -12 12 -13 1 -5 -12
8 -13 6 -8 -7 3 -10 3 -18 -1 -18 -4 0 -7 -13 -7 -30 0 -16 3 -30 7 -30 4 0 5
-7 1 -16 -3 -9 0 -20 8 -25 8 -5 9 -9 3 -9 -7 0 -10 -55 -11 -162 0 -90 -3
-173 -7 -185 -5 -15 -3 -23 5 -23 9 0 9 -4 -1 -15 -7 -8 -11 -34 -8 -60 2 -25
0 -45 -4 -45 -3 0 -5 -18 -4 -40 2 -22 0 -37 -5 -35 -9 6 -6 -11 9 -48 7 -16
12 -36 13 -45 0 -14 2 -13 8 3 5 12 7 -8 5 -48 -3 -53 -1 -67 8 -61 10 6 10 5
1 -7 -11 -14 -17 -45 -28 -144 -3 -28 -9 -64 -13 -80 -10 -36 -9 -46 2 -64 7
-10 6 -12 -3 -6 -9 5 -11 -1 -8 -24 3 -17 1 -31 -4 -31 -6 0 -7 -5 -4 -10 4
-6 10 -8 15 -5 5 3 12 1 15 -5 4 -6 3 -10 -2 -9 -20 3 -34 -2 -28 -11 4 -6 10
-8 14 -6 4 3 8 -1 8 -9 0 -8 -3 -13 -6 -11 -3 2 -7 -14 -8 -36 -1 -37 0 -39
25 -36 15 2 32 -3 37 -10 14 -17 66 -23 83 -10 8 7 12 7 12 -1 0 -14 22 -10
36 8 8 11 15 11 33 1 17 -9 26 -9 35 0 12 12 16 140 3 140 -4 0 -6 3 -5 8 1 4
-2 27 -6 52 -5 25 -10 50 -10 55 -1 6 -8 9 -16 7 -12 -3 -13 -1 -2 9 17 18 15
29 -5 30 -11 0 -13 3 -5 6 18 7 4 23 -16 17 -12 -4 -11 -2 3 8 24 15 22 48 -3
49 -14 0 -14 2 2 8 19 7 19 8 -4 31 -16 16 -18 21 -7 17 13 -5 17 -1 17 18 0
14 -6 25 -12 25 -7 0 -5 5 5 11 18 10 18 12 0 32 -9 12 -11 16 -3 10 11 -10
17 -6 31 25 15 34 15 38 0 50 -14 11 -13 12 9 10 19 -2 25 2 25 17 1 11 -3 23
-7 26 -5 3 -11 16 -13 30 -3 13 -9 25 -15 27 -6 2 -8 8 -4 13 6 11 -8 12 -22
2 -5 -5 -3 -1 6 7 17 17 19 34 6 47 -5 4 -6 3 -2 -4 3 -6 2 -14 -3 -17 -11 -7
-9 13 3 33 5 8 3 16 -5 22 -12 7 -11 9 1 9 13 0 13 1 0 10 -13 9 -13 10 0 10
13 0 13 1 0 10 -8 5 -10 10 -4 10 12 0 12 29 0 48 -4 6 -3 12 2 12 5 0 9 7 9
15 0 8 -7 15 -16 15 -14 0 -14 2 -1 10 15 10 23 90 8 90 -4 0 -8 -4 -8 -10 0
-5 -5 -10 -10 -10 -6 0 -5 8 2 19 7 11 16 17 20 15 4 -3 8 8 8 25 0 16 -6 31
-12 34 -10 3 -10 8 1 18 9 9 11 9 7 2 -4 -7 -3 -13 2 -13 15 0 8 186 -8 206
-9 11 -10 15 -2 10 7 -4 12 -1 12 8 0 9 -5 16 -11 16 -8 0 -7 6 2 17 8 10 9
14 2 10 -9 -6 -10 4 -6 35 3 24 5 52 4 63 -1 11 -2 25 -1 30 0 6 1 27 3 47 1
21 4 38 7 38 3 0 6 26 8 58 1 40 -1 53 -8 42 -6 -9 -10 -10 -10 -3 0 7 6 16
13 20 21 14 17 43 -7 44 -16 0 -17 2 -6 7 10 5 16 20 15 42 0 31 -3 35 -27 34
-19 -1 -25 3 -20 14 3 10 1 13 -6 8 -8 -5 -10 -1 -5 10 5 13 3 15 -7 9 -8 -5
-11 -4 -6 3 3 6 2 13 -4 17 -5 3 -10 11 -10 18 0 6 11 -3 23 -21 13 -17 27
-29 31 -25 4 4 4 0 0 -10 -5 -13 -2 -16 10 -11 12 5 13 10 5 25 -5 10 -14 19
-19 19 -6 0 -10 7 -10 16 0 8 -4 13 -9 10 -5 -3 -12 1 -15 10 -5 13 -9 14 -21
4 -13 -11 -14 -10 -9 4 7 18 7 18 -111 22 -44 1 -125 5 -180 9 -55 4 -122 8
-150 10 -27 1 -70 6 -95 10 -25 4 -67 9 -95 10 -27 2 -50 5 -50 5 0 4 -85 13
-127 14 -25 0 -44 4 -41 9 2 4 -11 7 -29 8 -18 0 -42 2 -53 4 -11 2 -42 7 -69
10 -27 4 -56 8 -65 10 -31 5 -96 16 -131 20 -19 3 -58 9 -86 13 -29 5 -63 8
-78 7 -14 0 -26 2 -26 6 0 3 -6 6 -12 6 -15 0 -123 12 -158 18 -35 5 -116 15
-175 20 -27 3 -68 7 -90 10 -35 3 -236 14 -365 18 -25 1 -64 0 -88 -3z m1944
-332 c3 -4 -1 -5 -10 -4 -8 1 -18 5 -22 8 -3 4 1 5 10 4 8 -1 18 -5 22 -8z
m39 -6 c-3 -3 -11 0 -18 7 -9 10 -8 11 6 5 10 -3 15 -9 12 -12z m65 4 c0 -3
-4 -8 -10 -11 -5 -3 -10 -1 -10 4 0 6 5 11 10 11 6 0 10 -2 10 -4z m316 -26
c0 -12 -4 -16 -9 -11 -5 5 -6 14 -3 20 10 15 12 14 12 -9z m-16 -30 c0 -5 -2
-10 -4 -10 -3 0 -8 5 -11 10 -3 6 -1 10 4 10 6 0 11 -4 11 -10z m15 -50 c3 -6
-1 -7 -9 -4 -18 7 -21 14 -7 14 6 0 13 -4 16 -10z m-160 -50 c3 -5 1 -10 -4
-10 -6 0 -11 5 -11 10 0 6 2 10 4 10 3 0 8 -4 11 -10z m165 -20 c0 -5 -2 -10
-4 -10 -3 0 -8 5 -11 10 -3 6 -1 10 4 10 6 0 11 -4 11 -10z m-163 -91 c-6 -10
-13 -16 -16 -13 -3 2 0 9 7 16 8 8 8 17 1 32 -10 20 -9 20 5 2 12 -14 12 -22
3 -37z m6 -86 c-7 -2 -19 -2 -25 0 -7 3 -2 5 12 5 14 0 19 -2 13 -5z m1 -41
c3 -5 -1 -9 -9 -9 -8 0 -15 4 -15 9 0 4 4 8 9 8 6 0 12 -4 15 -8z m-7 -39 c0
-9 -4 -10 -14 -2 -7 6 -13 12 -13 14 0 1 6 2 13 2 8 0 14 -6 14 -14z m160
-129 c-3 -3 -12 -4 -19 -1 -8 3 -5 6 6 6 11 1 17 -2 13 -5z m0 -30 c-3 -3 -12
-4 -19 -1 -8 3 -5 6 6 6 11 1 17 -2 13 -5z m-6 -28 c14 8 11 -2 -4 -14 -10 -8
-13 -6 -14 11 0 12 1 16 4 9 3 -6 9 -10 14 -6z m9 -29 c0 -2 -10 -12 -22 -23
l-23 -19 19 23 c18 21 26 27 26 19z m0 -31 c0 -2 -8 -10 -17 -17 -16 -13 -17
-12 -4 4 13 16 21 21 21 13z m-24 -94 c-17 -16 -18 -16 -5 5 7 12 15 20 18 17
3 -2 -3 -12 -13 -22z m-146 -162 c-6 -11 -13 -20 -16 -20 -2 0 0 9 6 20 6 11
13 20 16 20 2 0 0 -9 -6 -20z m7 -116 c-3 -3 -12 -4 -19 -1 -8 3 -5 6 6 6 11
1 17 -2 13 -5z m-20 -71 c1 -22 -1 -24 -8 -10 -6 9 -7 22 -4 27 9 14 10 13 12
-17z m174 -56 c-10 -9 -11 -8 -5 6 3 10 9 15 12 12 3 -3 0 -11 -7 -18z m-169
6 c-6 -2 -9 -10 -6 -15 4 -7 2 -8 -5 -4 -13 9 -5 26 12 25 9 0 8 -2 -1 -6z
m203 -45 l16 -33 -20 25 c-20 24 -26 40 -16 40 2 0 12 -15 20 -32z m-32 -19
c-8 -8 -13 -7 -18 2 -6 8 -4 10 5 4 10 -6 12 -4 6 11 -6 15 -5 17 5 7 9 -10
10 -16 2 -24z m7 -29 c8 -5 11 -10 5 -10 -5 0 -17 5 -25 10 -8 5 -10 10 -5 10
6 0 17 -5 25 -10z m-165 -210 c3 -5 1 -10 -4 -10 -6 0 -11 5 -11 10 0 6 2 10
4 10 3 0 8 -4 11 -10z m1 -45 c-3 -23 -12 -26 -13 -5 -1 11 2 20 7 20 4 0 7
-7 6 -15z m-19 -55 c-3 -10 -1 -20 4 -22 5 -2 0 -9 -12 -16 -17 -11 -20 -11
-13 0 9 14 11 19 13 43 0 8 4 15 7 15 4 0 4 -9 1 -20z m185 -47 c-6 -2 -9 -10
-6 -15 4 -7 2 -8 -5 -4 -13 9 -5 26 12 25 9 0 8 -2 -1 -6z m-180 -10 c-6 -2
-9 -10 -6 -15 4 -7 2 -8 -5 -4 -13 9 -5 26 12 25 9 0 8 -2 -1 -6z m193 -43
c-12 -11 -17 -12 -27 -1 -11 10 -10 11 5 5 10 -3 17 -3 16 2 -1 5 -1 16 0 24
1 13 2 13 11 0 6 -10 5 -20 -5 -30z m-203 -12 c-7 -7 -12 -8 -12 -2 0 14 12
26 19 19 2 -3 -1 -11 -7 -17z m217 -39 c-6 -12 -5 -19 4 -22 6 -2 8 -8 4 -13
-12 -13 -27 17 -18 35 5 9 6 23 4 31 -4 13 -3 13 6 1 6 -10 6 -21 0 -32z m13
-84 c-8 -16 -9 -16 -15 -1 -4 10 -3 15 3 11 6 -3 10 -1 10 6 0 7 3 10 6 6 3
-3 2 -13 -4 -22z m-127 -44 c3 -5 2 -12 -3 -15 -5 -3 -9 1 -9 9 0 17 3 19 12
6z m120 -1 c3 -5 1 -10 -4 -10 -6 0 -11 5 -11 10 0 6 2 10 4 10 3 0 8 -4 11
-10z m-148 -6 c-3 -3 -12 -4 -19 -1 -8 3 -5 6 6 6 11 1 17 -2 13 -5z"/>
<path d="M2120 5718 c0 -4 4 -8 9 -8 6 0 12 4 15 8 3 5 -1 9 -9 9 -8 0 -15 -4
-15 -9z"/>
<path d="M2150 5706 c0 -2 7 -7 16 -10 8 -3 12 -2 9 4 -6 10 -25 14 -25 6z"/>
<path d="M5267 5698 c4 -7 -2 -9 -15 -6 -12 4 -22 2 -22 -4 0 -6 -6 -8 -14 -5
-7 3 -18 1 -22 -3 -5 -5 -25 -11 -44 -14 -103 -12 -137 -20 -152 -33 -9 -9
-18 -10 -22 -5 -10 17 -48 1 -41 -17 3 -8 3 -12 -1 -8 -4 4 -14 1 -23 -5 -13
-10 -14 -10 -3 2 15 18 16 38 1 23 -6 -6 -17 -9 -24 -7 -7 3 -16 1 -19 -5 -4
-6 -13 -8 -21 -4 -8 3 -15 0 -15 -7 0 -6 5 -8 10 -5 6 3 10 1 10 -5 0 -7 -7
-10 -15 -7 -8 4 -17 2 -20 -3 -8 -13 -25 -13 -25 0 0 6 5 9 11 8 6 -2 14 3 17
11 2 8 0 11 -5 8 -5 -3 -25 -9 -44 -12 -19 -3 -40 -13 -46 -22 -8 -10 -13 -12
-13 -5 0 22 -30 12 -31 -10 -1 -19 -2 -19 -6 -5 -3 11 -10 16 -20 13 -8 -3
-17 -6 -19 -6 -3 0 -2 -5 2 -12 4 -7 3 -8 -5 -4 -18 11 -63 -2 -55 -16 4 -7 3
-8 -5 -4 -6 4 -23 0 -36 -8 -14 -9 -25 -14 -25 -12 0 3 -24 -5 -52 -18 -29
-13 -65 -26 -80 -30 -15 -3 -40 -11 -55 -18 -15 -6 -32 -12 -38 -13 -118 -28
-249 -56 -279 -61 -21 -3 -46 -7 -56 -9 -103 -20 -467 -27 -615 -11 -44 4 -93
9 -110 11 -48 5 -118 14 -145 20 -13 2 -40 7 -60 10 -37 5 -47 8 -115 24 -22
5 -51 12 -65 14 -14 3 -54 13 -90 22 -36 9 -72 18 -81 20 -20 4 -214 63 -249
75 -14 5 -43 12 -65 15 -59 9 -160 33 -252 61 -45 14 -90 27 -100 29 -10 2
-43 11 -73 20 -30 8 -77 18 -105 21 -27 4 -53 8 -57 10 -3 2 -30 -1 -59 -7
-54 -12 -93 -42 -111 -89 -13 -31 -14 -153 -2 -171 5 -8 10 -176 10 -374 1
-198 4 -396 7 -440 8 -110 17 -205 23 -235 2 -14 7 -47 10 -75 4 -27 8 -57 10
-65 1 -8 6 -36 9 -62 4 -26 10 -46 14 -44 3 2 6 -10 5 -27 -1 -18 3 -45 8 -62
5 -16 11 -41 14 -55 3 -14 8 -34 11 -45 4 -11 8 -24 9 -30 5 -25 37 -131 42
-140 4 -5 7 -16 8 -22 11 -72 195 -448 227 -461 4 -2 7 -8 7 -14 0 -6 15 -29
32 -52 18 -22 40 -50 48 -60 107 -138 284 -291 435 -376 70 -40 194 -100 205
-100 5 0 18 -4 28 -9 49 -27 135 -60 143 -55 5 3 9 1 9 -4 0 -11 45 -31 80
-34 14 -2 28 -7 31 -11 4 -5 22 -9 40 -10 19 -1 36 -5 39 -9 8 -10 104 -13
120 -3 8 5 11 4 7 -2 -4 -6 3 -11 16 -11 12 0 45 -3 72 -7 59 -10 327 -10 405
-2 55 7 82 11 130 23 14 3 32 6 40 6 38 1 245 68 350 114 107 47 296 156 380
221 114 87 249 215 322 305 18 22 38 45 43 52 6 6 26 34 45 61 19 28 38 52 43
53 4 2 7 8 7 14 0 5 8 22 19 36 34 49 100 179 94 186 -4 3 -2 6 4 6 6 0 13 8
16 18 3 9 23 67 45 129 23 61 38 114 35 117 -4 3 0 6 8 6 11 0 11 2 -1 10 -9
6 -11 10 -3 10 7 0 10 7 6 17 -5 12 -3 14 8 8 11 -6 11 -5 2 5 -13 14 -6 41
13 53 15 8 12 71 -4 90 -7 8 -6 19 2 36 9 15 16 20 20 12 4 -6 2 -11 -3 -11
-11 0 -10 -34 1 -46 4 -3 5 2 4 13 -2 10 -1 22 2 28 11 18 9 43 -3 39 -11 -5
-14 91 -3 102 4 3 5 -10 4 -29 -1 -20 2 -33 6 -31 9 6 3 118 -7 133 -3 6 -2
11 3 11 10 0 8 81 -2 98 -3 6 -3 13 2 16 5 3 9 39 9 80 1 41 4 80 8 85 3 6 1
11 -5 11 -6 0 -8 5 -4 11 7 12 11 44 13 112 1 23 5 36 11 32 6 -3 10 -1 10 4
0 6 -5 11 -11 11 -8 0 -7 6 2 16 14 17 21 66 8 58 -4 -2 -6 -13 -4 -24 2 -11
0 -22 -5 -25 -5 -3 -8 8 -8 25 1 17 5 33 10 36 4 3 8 11 8 17 0 7 -4 6 -10 -3
-8 -13 -10 -12 -10 3 0 9 5 17 11 17 5 0 7 5 4 10 -4 6 -11 7 -17 4 -7 -4 -8
-2 -4 5 4 6 12 9 17 6 5 -4 9 -1 9 4 0 6 -5 11 -11 11 -6 0 -7 5 -2 13 11 17
12 98 2 91 -5 -3 -9 2 -9 10 0 10 6 13 18 9 14 -5 14 -3 -3 11 -11 10 -14 15
-7 11 6 -3 12 -1 12 4 0 6 -4 11 -8 11 -11 0 -9 172 2 189 7 11 5 13 -7 8 -13
-5 -15 -2 -8 16 4 12 7 43 6 69 0 26 3 44 7 42 4 -3 8 -1 8 5 0 5 -5 11 -12
13 -7 3 -5 7 6 11 9 4 15 3 11 -2 -3 -5 0 -13 5 -16 7 -5 5 -12 -7 -22 -16
-13 -16 -13 5 -3 17 8 21 15 13 24 -7 9 -7 16 0 23 8 8 6 19 -6 39 -9 16 -14
22 -11 13 2 -9 -1 -22 -7 -28 -9 -9 -8 -11 6 -6 9 4 17 3 17 -2 0 -5 -9 -9
-19 -10 -16 -1 -18 4 -17 33 2 19 6 37 9 41 12 11 8 25 -5 17 -7 -5 -8 -3 -3
6 10 17 15 71 6 65 -4 -2 -6 11 -5 28 3 38 -9 48 -47 37 -15 -5 -30 -5 -34 -2
-10 11 -35 11 -28 0z m-489 -133 c-3 -3 -9 2 -12 12 -6 14 -5 15 5 6 7 -7 10
-15 7 -18z m-28 6 c0 -6 -4 -12 -8 -15 -5 -3 -9 1 -9 9 0 8 4 15 9 15 4 0 8
-4 8 -9z m627 -553 c-3 -8 -6 -5 -6 6 -1 11 2 17 5 13 3 -3 4 -12 1 -19z m0
-33 c0 -8 -4 -12 -9 -9 -5 3 -6 10 -3 15 9 13 12 11 12 -6z m-3192 -291 c18
-3 100 -10 210 -19 22 -2 69 -6 105 -9 36 -3 117 -8 180 -11 63 -4 143 -8 178
-10 45 -2 60 0 55 8 -5 9 -3 9 8 1 17 -14 94 -17 479 -17 360 0 635 8 980 28
58 3 134 8 170 10 84 4 229 14 305 21 120 10 125 10 126 -6 0 -8 2 -24 5 -35
24 -111 24 -395 -1 -523 -2 -11 -6 -36 -9 -57 -10 -61 -28 -125 -58 -210 -16
-44 -31 -84 -32 -90 -5 -18 -56 -130 -66 -145 -6 -8 -14 -24 -19 -35 -12 -27
-108 -173 -138 -210 -13 -16 -36 -45 -51 -63 -23 -28 -105 -110 -177 -177 -40
-36 -215 -158 -215 -149 0 3 -12 -3 -27 -13 -40 -27 -129 -67 -193 -88 -30
-10 -59 -20 -65 -24 -5 -3 -12 -6 -15 -6 -56 -9 -89 -19 -85 -26 4 -5 0 -6 -8
-3 -8 3 -41 0 -74 -5 -32 -6 -89 -14 -128 -17 -38 -3 -87 -7 -108 -9 -21 -2
-36 -1 -33 3 2 4 -6 7 -19 7 -13 0 -21 -3 -18 -7 2 -5 -3 -8 -12 -8 -9 0 -13
4 -10 10 3 6 -1 7 -10 4 -8 -4 -23 0 -32 7 -14 12 -16 12 -8 0 6 -11 3 -13
-12 -9 -11 3 -28 1 -37 -4 -10 -6 -16 -5 -16 1 0 5 5 11 12 13 8 3 6 7 -5 11
-9 3 -16 3 -16 -1 3 -21 -3 -24 -17 -6 -8 10 -12 13 -9 6 5 -10 0 -13 -21 -10
-19 2 -28 8 -26 17 2 11 0 12 -10 4 -18 -15 -68 -11 -68 5 0 7 5 10 10 7 6 -3
10 -1 10 4 0 14 -13 14 -27 0 -12 -12 -76 -2 -68 11 3 4 -3 6 -14 3 -10 -3
-32 2 -49 11 -16 8 -32 12 -36 9 -3 -4 -6 1 -6 11 0 11 5 15 13 10 7 -4 9 -3
4 2 -5 5 -10 7 -11 4 -2 -3 -11 2 -22 10 -18 14 -18 14 -5 -3 18 -23 8 -33
-12 -12 -9 9 -19 15 -22 14 -3 0 -20 4 -37 10 -26 9 -29 13 -18 26 7 8 9 15 5
15 -4 0 -14 -8 -22 -17 -13 -17 -14 -16 -9 6 3 17 2 21 -6 13 -8 -8 -23 -4
-54 11 -41 21 -63 46 -28 33 14 -6 15 -4 4 9 -9 11 -15 12 -20 5 -8 -13 -60 7
-60 23 0 5 8 3 18 -4 15 -13 16 -12 4 3 -8 10 -20 14 -29 11 -11 -4 -14 -2 -9
5 5 8 0 12 -13 12 -11 0 -25 9 -31 20 -6 11 -16 19 -23 17 -7 -1 -11 4 -9 12
2 8 -3 11 -13 8 -9 -4 -15 -1 -15 8 0 8 -4 15 -9 15 -19 0 -176 167 -233 246
-32 44 -76 116 -99 160 -23 43 -46 83 -50 89 -5 5 -9 14 -9 21 0 6 -8 29 -17
50 -9 22 -17 41 -18 44 -3 14 -28 86 -34 95 -3 6 -7 21 -9 35 -2 14 -9 50 -17
80 -15 58 -23 102 -31 160 -3 19 -7 53 -10 75 -11 78 -16 277 -10 375 2 30 4
68 5 84 l1 28 77 -7 c43 -4 87 -9 98 -11z m3141 -674 c1 -16 -2 -30 -8 -30 -7
0 -6 35 1 58 3 9 6 -2 7 -28z m-2279 -1425 c0 -8 -4 -12 -9 -9 -5 3 -6 10 -3
15 9 13 12 11 12 -6z m43 -9 c0 -2 -7 -7 -16 -10 -8 -3 -12 -2 -9 4 6 10 25
14 25 6z"/>
<path d="M2786 3005 c10 -8 24 -14 29 -14 6 0 1 6 -9 14 -11 8 -24 15 -30 15
-5 0 -1 -7 10 -15z"/>
<path d="M2896 2952 c-3 -4 4 -9 15 -9 23 -2 25 3 4 10 -8 4 -16 3 -19 -1z"/>
<path d="M3008 2913 c6 -2 9 -10 6 -15 -4 -7 -2 -8 5 -4 13 9 5 26 -12 25 -9
0 -8 -2 1 -6z"/>
<path d="M3090 2881 c0 -9 30 -24 36 -18 2 1 -6 8 -16 15 -11 7 -20 8 -20 3z"/>
<path d="M3185 2850 c-3 -6 1 -7 9 -4 18 7 21 14 7 14 -6 0 -13 -4 -16 -10z"/>
<path d="M3240 2840 c0 -5 5 -10 11 -10 5 0 7 5 4 10 -3 6 -8 10 -11 10 -2 0
-4 -4 -4 -10z"/>
<path d="M5399 5583 c-1 -5 -1 -12 0 -17 1 -4 -4 -14 -10 -22 -10 -12 -9 -13
4 -8 10 3 16 16 15 30 -2 23 -7 32 -9 17z"/>
<path d="M3930 5475 c0 -8 4 -15 10 -15 5 0 7 7 4 15 -4 8 -8 15 -10 15 -2 0
-4 -7 -4 -15z"/>
<path d="M3108 5473 c7 -3 16 -2 19 1 4 3 -2 6 -13 5 -11 0 -14 -3 -6 -6z"/>
<path d="M3175 5460 c-3 -5 1 -10 10 -10 9 0 13 5 10 10 -3 6 -8 10 -10 10 -2
0 -7 -4 -10 -10z"/>
<path d="M3859 5453 c-13 -16 -12 -17 4 -4 16 13 21 21 13 21 -2 0 -10 -8 -17
-17z"/>
<path d="M3816 5452 c-3 -5 1 -9 9 -9 8 0 12 4 9 9 -3 4 -7 8 -9 8 -2 0 -6 -4
-9 -8z"/>
<path d="M3250 5440 c0 -5 3 -9 8 -9 4 1 9 1 12 -1 20 -7 61 -7 65 1 3 5 -2 6
-11 2 -10 -4 -15 -2 -11 4 3 5 0 10 -8 10 -8 0 -15 -5 -15 -11 0 -6 -5 -5 -12
2 -15 15 -28 16 -28 2z"/>
<path d="M3357 5423 c4 -11 8 -11 13 -3 6 9 9 9 15 1 5 -9 10 -9 21 0 11 9 14
9 14 0 0 -7 5 -9 11 -5 8 4 7 9 -2 15 -7 4 -18 4 -25 -1 -6 -6 -14 -7 -18 -3
-14 14 -35 11 -29 -4z"/>
<path d="M3546 5421 c8 -9 43 -11 48 -3 2 4 -9 7 -25 7 -15 1 -26 -1 -23 -4z"/>
<path d="M5389 5398 c-5 -43 -3 -80 4 -85 4 -2 4 -10 0 -16 -10 -16 -11 -137
-1 -131 5 3 6 9 3 14 -3 5 -1 12 5 15 8 5 7 11 -1 21 -9 11 -8 14 2 14 12 0
12 2 0 9 -7 5 -9 11 -4 14 6 4 9 31 9 62 -1 30 2 55 6 55 5 0 8 5 8 11 0 8 -6
7 -16 -2 -15 -12 -16 -11 -10 9 4 12 5 22 2 22 -3 0 -7 -6 -7 -12z"/>
<path d="M5385 5141 c-3 -5 -2 -12 3 -15 5 -3 9 1 9 9 0 17 -3 19 -12 6z"/>
<path d="M5750 3979 c0 -5 5 -7 10 -4 6 3 10 8 10 11 0 2 -4 4 -10 4 -5 0 -10
-5 -10 -11z"/>
<path d="M1838 2505 c-2 -2 -41 -5 -88 -8 -47 -4 -94 -8 -105 -10 -11 -3 -42
-8 -70 -11 -224 -30 -580 -166 -815 -312 -201 -124 -326 -235 -421 -371 -143
-207 -214 -440 -246 -803 -6 -71 -6 -686 0 -855 l2 -50 3385 -2 3385 -3 4 288
c8 683 4 849 -24 982 -3 14 -7 34 -9 45 -40 208 -144 411 -281 551 -106 109
-393 289 -585 367 -245 101 -452 149 -748 176 -85 7 -386 6 -467 -3 -111 -11
-156 -18 -288 -40 -15 -3 -44 -18 -65 -34 -184 -145 -445 -251 -712 -288 -65
-9 -378 -10 -435 -1 -22 3 -58 9 -80 12 -60 9 -75 12 -130 25 -27 6 -57 13
-66 15 -70 14 -263 90 -409 160 -217 104 -329 139 -520 160 -51 6 -208 13
-212 10z"/>
</g>
</svg>
